<svg xmlns="http://www.w3.org/2000/svg" width="170" height="32" viewBox="0 0 170 32" fill="none">
  <!-- Lucide "shield" icon, viewBox 0 0 24 24, translated + scaled to 28x28 at (0, 2) -->
  <g transform="translate(0 2) scale(1.1667)">
    <path d="M20 13c0 5-3.5 7.5-7.66 8.95a1 1 0 0 1-.67-.01C7.5 20.5 4 18 4 13V6a1 1 0 0 1 1-1c2 0 4.5-1.2 6.24-2.72a1.17 1.17 0 0 1 1.52 0C14.51 3.81 17 5 19 5a1 1 0 0 1 1 1z"
          stroke="#5B5BD6" stroke-width="2" stroke-linecap="round" stroke-linejoin="round" fill="none"/>
  </g>
  <text x="40" y="22" font-family="system-ui, -apple-system, 'Segoe UI', sans-serif"
        font-size="20" font-weight="700" fill="#0F172A" letter-spacing="-0.5">hexgate</text>
</svg>
